<svg width="50" height="63" viewBox="0 0 50 63" fill="none" xmlns="http://www.w3.org/2000/svg">
<path d="M32.6923 12.2253C35.8786 12.2253 38.4615 9.61784 38.4615 6.40124C38.4615 3.18464 35.8786 0.577148 32.6923 0.577148C29.506 0.577148 26.9231 3.18464 26.9231 6.40124C26.9231 9.61784 29.506 12.2253 32.6923 12.2253ZM13.6647 39.0974L11.8858 43.2859H3.84615C1.72236 43.2859 0 45.0247 0 47.1687C0 49.3127 1.72236 51.0514 3.84615 51.0514H13.155C15.4687 51.0514 17.5517 49.6633 18.4567 47.5217L19.5132 45.032L18.2308 44.2675C16.149 43.0263 14.6178 41.1893 13.6647 39.0974ZM46.1538 27.755H40.8618L37.7296 21.2939C36.2272 18.1938 33.4688 15.9273 30.3041 15.1131L21.7608 12.5481C18.3594 11.723 14.8173 12.4813 12.0445 14.6278L7.27644 18.3176C5.59014 19.6219 5.27043 22.0583 6.5649 23.7607C7.85937 25.463 10.2716 25.7821 11.9567 24.479L16.7272 20.7892C17.649 20.0745 18.8233 19.8185 19.7644 20.0442L21.5312 20.5744L17.0288 31.1779C15.512 34.7549 16.8714 38.9446 20.1899 40.9223L30.4038 47.0097L27.1022 57.6545C26.4675 59.7002 27.5962 61.8781 29.6226 62.5188C30.006 62.6401 30.393 62.6984 30.774 62.6984C32.4099 62.6984 33.9267 61.6343 34.4423 59.9744L38.2452 47.7122C38.9555 45.1921 37.8978 42.4851 35.6442 41.1128L28.2837 36.7278L32.0469 27.2296L34.4832 32.2566C35.4447 34.2392 37.4784 35.5193 39.6647 35.5193H46.1538C48.2776 35.5193 50 33.7805 50 31.6365C50 29.4925 48.2776 27.755 46.1538 27.755Z" fill="white"/>
</svg>
