<svg width="381" height="375" viewBox="0 0 381 375" fill="none" xmlns="http://www.w3.org/2000/svg">
<ellipse cx="187.501" cy="192.967" rx="185.313" ry="182.034" fill="#A8A8A8"/>
<mask id="mask0_97_42860" style="mask-type:alpha" maskUnits="userSpaceOnUse" x="0" y="0" width="375" height="375">
<circle cx="187.5" cy="187.5" r="187.5" fill="#F3BDE1"/>
</mask>
<g mask="url(#mask0_97_42860)">
<rect x="33.8926" y="299.562" width="307.216" height="102.77" fill="#4F4F4F"/>
<path d="M77.623 101.837C77.623 96.3141 82.1002 91.8369 87.623 91.8369H286.282C291.805 91.8369 296.282 96.3141 296.282 101.837V285.409C296.282 288.673 294.688 291.732 292.013 293.603L195.293 361.251C191.921 363.609 187.449 363.662 184.023 361.383L82.0852 293.585C79.2979 291.732 77.623 288.606 77.623 285.259V101.837Z" fill="#656565"/>
<path d="M108.236 152.781C108.236 151.124 109.579 149.781 111.236 149.781H263.764C265.421 149.781 266.764 151.124 266.764 152.781V201.716C266.764 203.662 264.94 205.093 263.05 204.63L187.13 186.037C186.655 185.921 186.159 185.922 185.684 186.042L111.969 204.6C110.074 205.077 108.236 203.644 108.236 201.69V152.781Z" fill="#D9D9D9"/>
</g>
<rect x="111.229" y="238.348" width="10.9291" height="49.5763" rx="5.46455" fill="#D9D9D9"/>
<rect x="133.086" y="238.348" width="10.9291" height="63.3475" rx="5.46455" fill="#D9D9D9"/>
<rect x="154.945" y="238.348" width="10.9291" height="71.6102" rx="5.46455" fill="#D9D9D9"/>
<rect x="180.445" y="238.348" width="10.9291" height="82.6271" rx="5.46455" fill="#D9D9D9"/>
<rect width="10.9291" height="46.822" rx="5.46455" transform="matrix(-1 0 0 1 260.594 238.348)" fill="#D9D9D9"/>
<rect width="10.9291" height="63.3475" rx="5.46455" transform="matrix(-1 0 0 1 238.736 238.348)" fill="#D9D9D9"/>
<rect width="10.9291" height="71.6102" rx="5.46455" transform="matrix(-1 0 0 1 216.877 238.348)" fill="#D9D9D9"/>
<path d="M328.082 256.329C325.75 256.329 323.513 257.255 321.863 258.904C320.214 260.553 319.288 262.789 319.288 265.121V300.288H284.111C281.778 300.288 279.541 301.215 277.892 302.863C276.243 304.512 275.316 306.748 275.316 309.08C275.316 311.412 276.243 313.648 277.892 315.297C279.541 316.946 281.778 317.872 284.111 317.872H319.288V353.04C319.288 355.371 320.214 357.607 321.863 359.256C323.513 360.905 325.75 361.831 328.082 361.831C330.414 361.831 332.651 360.905 334.3 359.256C335.95 357.607 336.876 355.371 336.876 353.04V317.872H372.053C374.386 317.872 376.622 316.946 378.272 315.297C379.921 313.648 380.848 311.412 380.848 309.08C380.848 306.748 379.921 304.512 378.272 302.863C376.622 301.215 374.386 300.288 372.053 300.288H336.876V265.121C336.876 262.789 335.95 260.553 334.3 258.904C332.651 257.255 330.414 256.329 328.082 256.329Z" fill="white"/>
</svg>
