<svg width="412" height="402" viewBox="0 0 412 402" fill="none" xmlns="http://www.w3.org/2000/svg">
<path d="M412 201C412 312.009 319.771 402 206 402C92.2293 402 0 312.009 0 201C0 89.9908 92.2293 0 206 0C319.771 0 412 89.9908 412 201Z" fill="#966F29"/>
<path d="M381.254 201C381.254 295.441 302.79 372 206 372C109.21 372 30.7463 295.441 30.7463 201C30.7463 106.559 109.21 30 206 30C302.79 30 381.254 106.559 381.254 201Z" fill="#DAA442"/>
<path d="M255.482 230.719C255.162 231.781 254.874 232.531 254.618 232.969C250.774 241.219 246.643 247.5 242.223 251.812C238.892 255.125 236.234 257.688 234.248 259.5C232.262 261.312 230.917 262.438 230.213 262.875L208.786 276C205.135 275.062 200.844 273.406 195.911 271.031C191.043 268.594 186.143 265.5 181.211 261.75C176.343 258 171.827 253.625 167.663 248.625C163.5 243.625 160.329 238.062 158.151 231.938C156.486 227.188 155.173 222.656 154.212 218.344C153.315 213.969 152.899 209.594 152.963 205.219C152.963 199.844 153.699 194.344 155.173 188.719C156.71 183.094 158.792 177.688 161.418 172.5C164.108 167.312 167.279 162.562 170.93 158.25C174.581 153.875 178.553 150.25 182.844 147.375L204.174 133.969C205.968 134.469 208.146 135.219 210.708 136.219C213.27 137.219 216.121 138.562 219.259 140.25C222.398 141.938 225.697 144 229.156 146.438C232.679 148.875 236.234 151.781 239.821 155.156C241.807 157.156 243.632 159.219 245.298 161.344L226.177 170.531C223.295 166.969 220.348 163.938 217.338 161.438C214.327 158.875 211.124 156.719 207.729 154.969C204.335 153.156 200.683 151.688 196.776 150.562C192.933 149.375 188.673 148.375 183.997 147.562L183.901 147.656C178.392 150.781 174.197 159.062 171.314 172.5C169.393 181.5 168.432 189.594 168.432 196.781C168.432 200.719 168.848 204.906 169.681 209.344C170.514 213.781 171.859 218.219 173.716 222.656C175.638 227.031 178.136 231.344 181.211 235.594C184.285 239.781 188.065 243.656 192.549 247.219C197.032 250.781 202.285 253.906 208.306 256.594C214.327 259.281 221.245 261.312 229.06 262.688C235.017 257.562 237.995 249.5 237.995 238.5C237.995 233.438 237.355 228.688 236.074 224.25L255.482 230.719Z" fill="#966F29"/>
</svg>
