<svg width="459" height="459" viewBox="0 0 459 459" fill="none" xmlns="http://www.w3.org/2000/svg">
<path d="M229.5 20.2642C220.526 20.2642 211.552 22.405 205.442 26.6857C203.504 28.043 199.176 36.5201 197.183 44.7167C196.564 47.2627 196.272 49.2663 195.886 51.4546H263.115C262.73 49.2672 262.437 47.2627 261.818 44.7167C259.824 36.521 255.496 28.0421 253.558 26.6857C247.447 22.405 238.474 20.2642 229.5 20.2642ZM71.7188 23.8698L26.2607 137.517H112.156L114.667 131.242L71.7188 23.8698ZM387.281 23.8698L344.334 131.242L346.844 137.517H432.739L387.281 23.8698ZM208.881 67.5914V80.1422H250.119V67.5914H208.881ZM191.455 96.2789L185.18 108.83H273.82L267.544 96.2789H191.455ZM134.557 124.966L112.324 180.548H346.677L324.444 124.966H134.557ZM22.4121 153.654V438.736H71.7188V403.773C71.7188 403.773 75.371 375.085 86.0625 375.085C96.754 375.085 100.406 403.773 100.406 403.773V438.736H172.125V403.773C172.125 375.085 210.46 332.054 229.5 332.054C250.792 332.054 286.875 375.085 286.875 403.773V438.736H358.594V403.773C358.594 403.773 362.246 375.085 372.938 375.085C383.629 375.085 387.281 403.773 387.281 403.773V438.736H436.588V153.654H353.299L370.512 196.685H352.318V360.742H336.182V239.716H294.943V260.335H278.807V239.716H237.568V260.335H221.432V239.716H180.193V260.335H164.057V239.716H122.818V360.742H106.682V196.685H88.4893L105.702 153.654H22.4121ZM34.9629 174.273H51.0996V202.96H34.9629V174.273ZM407.9 174.273H424.037V202.96H407.9V174.273ZM122.818 196.685V223.58H164.057V217.304H180.193V223.58H221.432V217.304H237.568V223.58H278.807V217.304H294.943V223.58H336.182V196.685H122.818ZM77.9941 260.335H94.1309V289.023H77.9941V260.335ZM364.869 260.335H381.006V289.023H364.869V260.335ZM229.5 280.519L232.051 281.367C232.051 281.367 254.214 288.72 276.598 301.776C287.789 308.305 299.135 316.258 308.044 325.908C316.952 335.558 323.631 347.294 323.631 360.742H307.494C307.494 352.673 303.415 344.686 296.187 336.855C288.958 329.024 278.79 321.737 268.466 315.716C249.84 304.85 233.007 298.88 229.5 297.659C225.993 298.878 209.159 304.85 190.534 315.714C180.21 321.738 170.042 329.024 162.813 336.856C155.585 344.688 151.506 352.674 151.506 360.743H135.369C135.369 347.295 142.048 335.559 150.956 325.909C159.864 316.259 171.211 308.305 182.403 301.777C204.786 288.721 226.95 281.368 226.95 281.368L229.5 280.519Z" fill="#F3BDE1"/>
</svg>
