<svg width="381" height="404" viewBox="0 0 381 404" fill="none" xmlns="http://www.w3.org/2000/svg">
<mask id="path-1-inside-1_97_39821" fill="white">
<path d="M96.2252 144.261C98.5493 132.873 101.775 125.36 105.902 121.721C106.83 120.903 108.114 120.686 109.326 120.936C118.159 122.757 126.251 126.079 133.602 130.902C139.095 134.405 143.626 138.383 147.194 142.836C150.762 147.289 153.565 151.891 155.604 156.64C157.642 161.331 159.058 166.021 159.851 170.712C160.644 175.343 161.04 179.647 161.04 183.625C161.04 186 160.927 188.553 160.7 191.284C160.53 194.016 160.219 196.836 159.766 199.745C159.37 202.654 158.832 205.564 158.152 208.473C158.09 208.756 158.027 209.037 157.962 209.318C157.292 212.236 153.549 212.615 152.291 209.898C152.042 209.327 151.806 208.768 151.583 208.22C150.787 206.267 148.266 205.477 146.429 206.514C144.957 207.345 143.286 208.146 141.417 208.918C139.548 209.69 137.51 210.402 135.301 211.056C133.149 211.649 132.198 215.124 133.821 216.658C134.238 217.052 134.675 217.471 135.131 217.913C135.401 218.17 135.678 218.435 135.962 218.71C139.439 222.075 136.387 227.254 131.923 225.388C130.719 224.884 129.551 224.352 128.42 223.791C123.154 221.179 118.566 218.269 114.659 215.063C110.751 211.798 107.438 208.117 104.72 204.02C102.058 199.923 99.9063 195.767 98.2639 191.552C96.6216 187.336 95.4323 183.15 94.6961 178.994C94.0166 174.779 93.6768 170.801 93.6768 167.06C93.6768 160.173 94.5262 152.573 96.2252 144.261Z"/>
<path fill-rule="evenodd" clip-rule="evenodd" d="M381 5C381 2.23858 378.761 0 376 0H5C2.23858 0 0 2.23858 0 5.00001V312.411C0 314.325 1.09228 316.071 2.81323 316.908L179.802 402.983C181.128 403.628 182.671 403.654 184.018 403.056L378.03 316.859C379.836 316.057 381 314.266 381 312.29V5ZM122.729 240.178C124.345 240.856 125.825 241.426 127.169 241.889C128.545 242.364 130.055 242.122 131.271 241.322L143.342 233.383C145.587 231.906 148.611 232.461 150.067 234.72C153.216 239.607 155.896 244.695 158.107 249.985C159.322 252.894 162.806 254.176 165.626 252.769C167.605 251.782 169.502 250.94 171.319 250.241C173.246 249.546 174.706 242.827 173.329 241.309C170.149 237.802 166.392 232.883 162.06 226.552L158.703 221.386C158.335 220.819 158.425 220.069 158.916 219.605C161.125 217.29 163.164 214.588 165.033 211.501C166.958 208.354 168.629 204.91 170.045 201.17C171.46 197.43 172.565 193.422 173.358 189.147C174.207 184.813 174.632 180.33 174.632 175.699C174.632 171.84 174.264 167.803 173.527 163.587C172.791 159.372 171.687 155.008 170.215 150.495C168.799 145.864 166.873 141.619 164.438 137.76C162.003 133.901 159.313 130.457 156.368 127.429C153.423 124.342 150.365 121.64 147.194 119.325C144.022 117.009 140.993 115.05 138.104 113.447C135.273 111.784 132.696 110.508 130.374 109.617C129.306 109.169 128.363 108.787 127.547 108.471C126.126 107.921 124.542 108.155 123.279 109.008L106.419 120.393C102.172 123.481 98.4055 127.221 95.1209 131.615C91.8362 136.009 89.0613 140.699 86.796 145.686C84.5874 150.614 82.8884 155.661 81.6992 160.826C80.5665 165.932 80.0002 170.771 80.0002 175.343C80.0002 179.143 80.3117 183.061 80.9346 187.099C81.5576 191.077 82.577 195.144 83.9927 199.3C85.4085 203.396 87.2491 207.463 89.5143 211.501C91.7796 215.479 94.5829 219.219 97.9241 222.722C100.529 225.453 103.276 227.947 106.164 230.203C109.052 232.4 111.912 234.33 114.744 235.992C117.575 237.654 120.237 239.05 122.729 240.178ZM216.796 216.844C216.27 223.673 215.52 230.862 214.548 238.412C214.343 240.003 216.166 241.148 217.561 240.356C218.92 239.525 220.477 238.694 222.233 237.862C223.989 237.031 225.942 236.319 228.094 235.725C229.697 235.294 231.419 234.941 233.26 234.667C234.359 234.503 235.07 233.396 234.72 232.341C234.267 230.975 233.871 227.977 233.531 223.346C233.21 218.914 232.838 213.024 232.416 205.677C232.378 205.021 232.974 204.509 233.616 204.643C237.24 205.712 240.865 206.573 244.489 207.226C248.17 207.82 251.88 208.117 255.617 208.117C256.75 208.117 257.911 208.087 259.1 208.028C260.29 207.909 261.394 207.79 262.413 207.671C263.433 207.553 264.31 207.434 265.047 207.315C266.202 207.129 267.369 207.686 267.853 208.751C270.391 214.336 273.653 223.586 277.639 236.501C278.593 239.594 282.173 240.993 285.084 239.577C286.974 238.657 288.79 237.878 290.531 237.239C290.945 237.082 291.358 236.932 291.772 236.789C295.553 235.476 297.427 230.534 295.06 227.307C293.355 224.983 291.675 222.535 290.021 219.961C286.582 214.465 283.227 208.35 279.957 201.618C279.93 201.563 279.94 201.497 279.982 201.453C279.992 201.442 280.004 201.434 280.016 201.426C280.747 201.012 281.505 200.482 282.291 199.834C285.859 196.984 288.804 193.986 291.125 190.839C293.447 187.633 295.231 184.427 296.477 181.221C297.723 177.955 298.629 174.749 299.195 171.602C299.762 168.396 300.073 165.19 300.13 161.984C300.13 158.362 299.762 154.77 299.026 151.208C298.289 147.646 297.242 144.232 295.883 140.966C294.523 137.701 292.909 134.643 291.041 131.793C289.172 128.884 287.105 126.301 284.839 124.045C282.121 121.373 279.063 119.028 275.665 117.009C272.324 114.931 268.869 113.209 265.301 111.844C261.79 110.419 258.336 109.38 254.938 108.727C251.597 108.014 248.595 107.658 245.933 107.658C243.611 107.658 240.667 108.014 237.099 108.727C233.531 109.38 229.199 110.419 224.102 111.844C223.875 111.903 222.629 112.408 220.364 113.358C218.517 114.133 215.954 115.203 212.676 116.57C211.208 117.182 210.118 118.456 209.741 120.001L207.455 129.371C206.534 133.147 211.065 136.164 214.418 134.198C217.816 132.238 221.185 130.576 224.527 129.21C227.868 127.845 231.152 126.806 234.38 126.093C237.665 125.321 240.78 124.935 243.725 124.935C247.179 124.935 250.407 125.232 253.409 125.826C256.467 126.42 259.27 127.221 261.819 128.231C264.367 129.24 266.632 130.398 268.614 131.704C270.653 133.01 272.324 134.376 273.626 135.801C275.042 137.404 276.401 139.274 277.704 141.411C279.063 143.489 280.252 145.805 281.272 148.358C282.291 150.852 283.112 153.523 283.735 156.373C284.358 159.164 284.669 162.043 284.669 165.012C284.669 166.674 284.556 168.456 284.33 170.356C284.16 172.196 283.905 174.185 283.565 176.323C282.886 180.122 281.668 183.536 279.912 186.564C278.157 189.592 275.835 192.145 272.947 194.223C270.115 196.301 266.972 197.934 263.518 199.122C260.12 200.25 256.467 200.843 252.559 200.903C246.953 200.903 240.638 199.567 233.616 196.895C232.618 196.4 231.964 195.406 231.907 194.294C231.84 192.984 231.787 191.832 231.747 190.839C231.69 189.414 231.634 188.167 231.577 187.099C231.521 186.03 231.492 185.05 231.492 184.16V181.221C231.492 175.283 231.804 168.693 232.427 161.45C232.827 157.188 233.334 152.68 233.95 147.925C234.489 143.76 229.961 140.672 226.086 142.292C225.474 142.548 224.869 142.789 224.272 143.014C221.871 143.895 219.456 144.569 217.026 145.035C215.384 145.35 214.225 146.887 214.503 148.536C215.352 155.364 216.088 162.578 216.711 170.177C217.391 177.718 217.731 185.644 217.731 193.956C217.731 201.14 217.419 208.77 216.796 216.844Z"/>
</mask>
<path d="M96.2252 144.261C98.5493 132.873 101.775 125.36 105.902 121.721C106.83 120.903 108.114 120.686 109.326 120.936C118.159 122.757 126.251 126.079 133.602 130.902C139.095 134.405 143.626 138.383 147.194 142.836C150.762 147.289 153.565 151.891 155.604 156.64C157.642 161.331 159.058 166.021 159.851 170.712C160.644 175.343 161.04 179.647 161.04 183.625C161.04 186 160.927 188.553 160.7 191.284C160.53 194.016 160.219 196.836 159.766 199.745C159.37 202.654 158.832 205.564 158.152 208.473C158.09 208.756 158.027 209.037 157.962 209.318C157.292 212.236 153.549 212.615 152.291 209.898C152.042 209.327 151.806 208.768 151.583 208.22C150.787 206.267 148.266 205.477 146.429 206.514C144.957 207.345 143.286 208.146 141.417 208.918C139.548 209.69 137.51 210.402 135.301 211.056C133.149 211.649 132.198 215.124 133.821 216.658C134.238 217.052 134.675 217.471 135.131 217.913C135.401 218.17 135.678 218.435 135.962 218.71C139.439 222.075 136.387 227.254 131.923 225.388C130.719 224.884 129.551 224.352 128.42 223.791C123.154 221.179 118.566 218.269 114.659 215.063C110.751 211.798 107.438 208.117 104.72 204.02C102.058 199.923 99.9063 195.767 98.2639 191.552C96.6216 187.336 95.4323 183.15 94.6961 178.994C94.0166 174.779 93.6768 170.801 93.6768 167.06C93.6768 160.173 94.5262 152.573 96.2252 144.261Z" fill="url(#paint0_linear_97_39821)"/>
<path fill-rule="evenodd" clip-rule="evenodd" d="M381 5C381 2.23858 378.761 0 376 0H5C2.23858 0 0 2.23858 0 5.00001V312.411C0 314.325 1.09228 316.071 2.81323 316.908L179.802 402.983C181.128 403.628 182.671 403.654 184.018 403.056L378.03 316.859C379.836 316.057 381 314.266 381 312.29V5ZM122.729 240.178C124.345 240.856 125.825 241.426 127.169 241.889C128.545 242.364 130.055 242.122 131.271 241.322L143.342 233.383C145.587 231.906 148.611 232.461 150.067 234.72C153.216 239.607 155.896 244.695 158.107 249.985C159.322 252.894 162.806 254.176 165.626 252.769C167.605 251.782 169.502 250.94 171.319 250.241C173.246 249.546 174.706 242.827 173.329 241.309C170.149 237.802 166.392 232.883 162.06 226.552L158.703 221.386C158.335 220.819 158.425 220.069 158.916 219.605C161.125 217.29 163.164 214.588 165.033 211.501C166.958 208.354 168.629 204.91 170.045 201.17C171.46 197.43 172.565 193.422 173.358 189.147C174.207 184.813 174.632 180.33 174.632 175.699C174.632 171.84 174.264 167.803 173.527 163.587C172.791 159.372 171.687 155.008 170.215 150.495C168.799 145.864 166.873 141.619 164.438 137.76C162.003 133.901 159.313 130.457 156.368 127.429C153.423 124.342 150.365 121.64 147.194 119.325C144.022 117.009 140.993 115.05 138.104 113.447C135.273 111.784 132.696 110.508 130.374 109.617C129.306 109.169 128.363 108.787 127.547 108.471C126.126 107.921 124.542 108.155 123.279 109.008L106.419 120.393C102.172 123.481 98.4055 127.221 95.1209 131.615C91.8362 136.009 89.0613 140.699 86.796 145.686C84.5874 150.614 82.8884 155.661 81.6992 160.826C80.5665 165.932 80.0002 170.771 80.0002 175.343C80.0002 179.143 80.3117 183.061 80.9346 187.099C81.5576 191.077 82.577 195.144 83.9927 199.3C85.4085 203.396 87.2491 207.463 89.5143 211.501C91.7796 215.479 94.5829 219.219 97.9241 222.722C100.529 225.453 103.276 227.947 106.164 230.203C109.052 232.4 111.912 234.33 114.744 235.992C117.575 237.654 120.237 239.05 122.729 240.178ZM216.796 216.844C216.27 223.673 215.52 230.862 214.548 238.412C214.343 240.003 216.166 241.148 217.561 240.356C218.92 239.525 220.477 238.694 222.233 237.862C223.989 237.031 225.942 236.319 228.094 235.725C229.697 235.294 231.419 234.941 233.26 234.667C234.359 234.503 235.07 233.396 234.72 232.341C234.267 230.975 233.871 227.977 233.531 223.346C233.21 218.914 232.838 213.024 232.416 205.677C232.378 205.021 232.974 204.509 233.616 204.643C237.24 205.712 240.865 206.573 244.489 207.226C248.17 207.82 251.88 208.117 255.617 208.117C256.75 208.117 257.911 208.087 259.1 208.028C260.29 207.909 261.394 207.79 262.413 207.671C263.433 207.553 264.31 207.434 265.047 207.315C266.202 207.129 267.369 207.686 267.853 208.751C270.391 214.336 273.653 223.586 277.639 236.501C278.593 239.594 282.173 240.993 285.084 239.577C286.974 238.657 288.79 237.878 290.531 237.239C290.945 237.082 291.358 236.932 291.772 236.789C295.553 235.476 297.427 230.534 295.06 227.307C293.355 224.983 291.675 222.535 290.021 219.961C286.582 214.465 283.227 208.35 279.957 201.618C279.93 201.563 279.94 201.497 279.982 201.453C279.992 201.442 280.004 201.434 280.016 201.426C280.747 201.012 281.505 200.482 282.291 199.834C285.859 196.984 288.804 193.986 291.125 190.839C293.447 187.633 295.231 184.427 296.477 181.221C297.723 177.955 298.629 174.749 299.195 171.602C299.762 168.396 300.073 165.19 300.13 161.984C300.13 158.362 299.762 154.77 299.026 151.208C298.289 147.646 297.242 144.232 295.883 140.966C294.523 137.701 292.909 134.643 291.041 131.793C289.172 128.884 287.105 126.301 284.839 124.045C282.121 121.373 279.063 119.028 275.665 117.009C272.324 114.931 268.869 113.209 265.301 111.844C261.79 110.419 258.336 109.38 254.938 108.727C251.597 108.014 248.595 107.658 245.933 107.658C243.611 107.658 240.667 108.014 237.099 108.727C233.531 109.38 229.199 110.419 224.102 111.844C223.875 111.903 222.629 112.408 220.364 113.358C218.517 114.133 215.954 115.203 212.676 116.57C211.208 117.182 210.118 118.456 209.741 120.001L207.455 129.371C206.534 133.147 211.065 136.164 214.418 134.198C217.816 132.238 221.185 130.576 224.527 129.21C227.868 127.845 231.152 126.806 234.38 126.093C237.665 125.321 240.78 124.935 243.725 124.935C247.179 124.935 250.407 125.232 253.409 125.826C256.467 126.42 259.27 127.221 261.819 128.231C264.367 129.24 266.632 130.398 268.614 131.704C270.653 133.01 272.324 134.376 273.626 135.801C275.042 137.404 276.401 139.274 277.704 141.411C279.063 143.489 280.252 145.805 281.272 148.358C282.291 150.852 283.112 153.523 283.735 156.373C284.358 159.164 284.669 162.043 284.669 165.012C284.669 166.674 284.556 168.456 284.33 170.356C284.16 172.196 283.905 174.185 283.565 176.323C282.886 180.122 281.668 183.536 279.912 186.564C278.157 189.592 275.835 192.145 272.947 194.223C270.115 196.301 266.972 197.934 263.518 199.122C260.12 200.25 256.467 200.843 252.559 200.903C246.953 200.903 240.638 199.567 233.616 196.895C232.618 196.4 231.964 195.406 231.907 194.294C231.84 192.984 231.787 191.832 231.747 190.839C231.69 189.414 231.634 188.167 231.577 187.099C231.521 186.03 231.492 185.05 231.492 184.16V181.221C231.492 175.283 231.804 168.693 232.427 161.45C232.827 157.188 233.334 152.68 233.95 147.925C234.489 143.76 229.961 140.672 226.086 142.292C225.474 142.548 224.869 142.789 224.272 143.014C221.871 143.895 219.456 144.569 217.026 145.035C215.384 145.35 214.225 146.887 214.503 148.536C215.352 155.364 216.088 162.578 216.711 170.177C217.391 177.718 217.731 185.644 217.731 193.956C217.731 201.14 217.419 208.77 216.796 216.844Z" fill="url(#paint1_linear_97_39821)"/>
<path d="M96.2252 144.261C98.5493 132.873 101.775 125.36 105.902 121.721C106.83 120.903 108.114 120.686 109.326 120.936C118.159 122.757 126.251 126.079 133.602 130.902C139.095 134.405 143.626 138.383 147.194 142.836C150.762 147.289 153.565 151.891 155.604 156.64C157.642 161.331 159.058 166.021 159.851 170.712C160.644 175.343 161.04 179.647 161.04 183.625C161.04 186 160.927 188.553 160.7 191.284C160.53 194.016 160.219 196.836 159.766 199.745C159.37 202.654 158.832 205.564 158.152 208.473C158.09 208.756 158.027 209.037 157.962 209.318C157.292 212.236 153.549 212.615 152.291 209.898C152.042 209.327 151.806 208.768 151.583 208.22C150.787 206.267 148.266 205.477 146.429 206.514C144.957 207.345 143.286 208.146 141.417 208.918C139.548 209.69 137.51 210.402 135.301 211.056C133.149 211.649 132.198 215.124 133.821 216.658C134.238 217.052 134.675 217.471 135.131 217.913C135.401 218.17 135.678 218.435 135.962 218.71C139.439 222.075 136.387 227.254 131.923 225.388C130.719 224.884 129.551 224.352 128.42 223.791C123.154 221.179 118.566 218.269 114.659 215.063C110.751 211.798 107.438 208.117 104.72 204.02C102.058 199.923 99.9063 195.767 98.2639 191.552C96.6216 187.336 95.4323 183.15 94.6961 178.994C94.0166 174.779 93.6768 170.801 93.6768 167.06C93.6768 160.173 94.5262 152.573 96.2252 144.261Z" stroke="white" stroke-opacity="0.75" stroke-width="12" mask="url(#path-1-inside-1_97_39821)"/>
<path fill-rule="evenodd" clip-rule="evenodd" d="M381 5C381 2.23858 378.761 0 376 0H5C2.23858 0 0 2.23858 0 5.00001V312.411C0 314.325 1.09228 316.071 2.81323 316.908L179.802 402.983C181.128 403.628 182.671 403.654 184.018 403.056L378.03 316.859C379.836 316.057 381 314.266 381 312.29V5ZM122.729 240.178C124.345 240.856 125.825 241.426 127.169 241.889C128.545 242.364 130.055 242.122 131.271 241.322L143.342 233.383C145.587 231.906 148.611 232.461 150.067 234.72C153.216 239.607 155.896 244.695 158.107 249.985C159.322 252.894 162.806 254.176 165.626 252.769C167.605 251.782 169.502 250.94 171.319 250.241C173.246 249.546 174.706 242.827 173.329 241.309C170.149 237.802 166.392 232.883 162.06 226.552L158.703 221.386C158.335 220.819 158.425 220.069 158.916 219.605C161.125 217.29 163.164 214.588 165.033 211.501C166.958 208.354 168.629 204.91 170.045 201.17C171.46 197.43 172.565 193.422 173.358 189.147C174.207 184.813 174.632 180.33 174.632 175.699C174.632 171.84 174.264 167.803 173.527 163.587C172.791 159.372 171.687 155.008 170.215 150.495C168.799 145.864 166.873 141.619 164.438 137.76C162.003 133.901 159.313 130.457 156.368 127.429C153.423 124.342 150.365 121.64 147.194 119.325C144.022 117.009 140.993 115.05 138.104 113.447C135.273 111.784 132.696 110.508 130.374 109.617C129.306 109.169 128.363 108.787 127.547 108.471C126.126 107.921 124.542 108.155 123.279 109.008L106.419 120.393C102.172 123.481 98.4055 127.221 95.1209 131.615C91.8362 136.009 89.0613 140.699 86.796 145.686C84.5874 150.614 82.8884 155.661 81.6992 160.826C80.5665 165.932 80.0002 170.771 80.0002 175.343C80.0002 179.143 80.3117 183.061 80.9346 187.099C81.5576 191.077 82.577 195.144 83.9927 199.3C85.4085 203.396 87.2491 207.463 89.5143 211.501C91.7796 215.479 94.5829 219.219 97.9241 222.722C100.529 225.453 103.276 227.947 106.164 230.203C109.052 232.4 111.912 234.33 114.744 235.992C117.575 237.654 120.237 239.05 122.729 240.178ZM216.796 216.844C216.27 223.673 215.52 230.862 214.548 238.412C214.343 240.003 216.166 241.148 217.561 240.356C218.92 239.525 220.477 238.694 222.233 237.862C223.989 237.031 225.942 236.319 228.094 235.725C229.697 235.294 231.419 234.941 233.26 234.667C234.359 234.503 235.07 233.396 234.72 232.341C234.267 230.975 233.871 227.977 233.531 223.346C233.21 218.914 232.838 213.024 232.416 205.677C232.378 205.021 232.974 204.509 233.616 204.643C237.24 205.712 240.865 206.573 244.489 207.226C248.17 207.82 251.88 208.117 255.617 208.117C256.75 208.117 257.911 208.087 259.1 208.028C260.29 207.909 261.394 207.79 262.413 207.671C263.433 207.553 264.31 207.434 265.047 207.315C266.202 207.129 267.369 207.686 267.853 208.751C270.391 214.336 273.653 223.586 277.639 236.501C278.593 239.594 282.173 240.993 285.084 239.577C286.974 238.657 288.79 237.878 290.531 237.239C290.945 237.082 291.358 236.932 291.772 236.789C295.553 235.476 297.427 230.534 295.06 227.307C293.355 224.983 291.675 222.535 290.021 219.961C286.582 214.465 283.227 208.35 279.957 201.618C279.93 201.563 279.94 201.497 279.982 201.453C279.992 201.442 280.004 201.434 280.016 201.426C280.747 201.012 281.505 200.482 282.291 199.834C285.859 196.984 288.804 193.986 291.125 190.839C293.447 187.633 295.231 184.427 296.477 181.221C297.723 177.955 298.629 174.749 299.195 171.602C299.762 168.396 300.073 165.19 300.13 161.984C300.13 158.362 299.762 154.77 299.026 151.208C298.289 147.646 297.242 144.232 295.883 140.966C294.523 137.701 292.909 134.643 291.041 131.793C289.172 128.884 287.105 126.301 284.839 124.045C282.121 121.373 279.063 119.028 275.665 117.009C272.324 114.931 268.869 113.209 265.301 111.844C261.79 110.419 258.336 109.38 254.938 108.727C251.597 108.014 248.595 107.658 245.933 107.658C243.611 107.658 240.667 108.014 237.099 108.727C233.531 109.38 229.199 110.419 224.102 111.844C223.875 111.903 222.629 112.408 220.364 113.358C218.517 114.133 215.954 115.203 212.676 116.57C211.208 117.182 210.118 118.456 209.741 120.001L207.455 129.371C206.534 133.147 211.065 136.164 214.418 134.198C217.816 132.238 221.185 130.576 224.527 129.21C227.868 127.845 231.152 126.806 234.38 126.093C237.665 125.321 240.78 124.935 243.725 124.935C247.179 124.935 250.407 125.232 253.409 125.826C256.467 126.42 259.27 127.221 261.819 128.231C264.367 129.24 266.632 130.398 268.614 131.704C270.653 133.01 272.324 134.376 273.626 135.801C275.042 137.404 276.401 139.274 277.704 141.411C279.063 143.489 280.252 145.805 281.272 148.358C282.291 150.852 283.112 153.523 283.735 156.373C284.358 159.164 284.669 162.043 284.669 165.012C284.669 166.674 284.556 168.456 284.33 170.356C284.16 172.196 283.905 174.185 283.565 176.323C282.886 180.122 281.668 183.536 279.912 186.564C278.157 189.592 275.835 192.145 272.947 194.223C270.115 196.301 266.972 197.934 263.518 199.122C260.12 200.25 256.467 200.843 252.559 200.903C246.953 200.903 240.638 199.567 233.616 196.895C232.618 196.4 231.964 195.406 231.907 194.294C231.84 192.984 231.787 191.832 231.747 190.839C231.69 189.414 231.634 188.167 231.577 187.099C231.521 186.03 231.492 185.05 231.492 184.16V181.221C231.492 175.283 231.804 168.693 232.427 161.45C232.827 157.188 233.334 152.68 233.95 147.925C234.489 143.76 229.961 140.672 226.086 142.292C225.474 142.548 224.869 142.789 224.272 143.014C221.871 143.895 219.456 144.569 217.026 145.035C215.384 145.35 214.225 146.887 214.503 148.536C215.352 155.364 216.088 162.578 216.711 170.177C217.391 177.718 217.731 185.644 217.731 193.956C217.731 201.14 217.419 208.77 216.796 216.844Z" stroke="white" stroke-opacity="0.75" stroke-width="12" mask="url(#path-1-inside-1_97_39821)"/>
<defs>
<linearGradient id="paint0_linear_97_39821" x1="373.982" y1="186.745" x2="4.00827" y2="183.878" gradientUnits="userSpaceOnUse">
<stop offset="0.505208" stop-color="#A65CD9"/>
<stop offset="0.505308" stop-color="#0811DA"/>
</linearGradient>
<linearGradient id="paint1_linear_97_39821" x1="373.982" y1="186.745" x2="4.00827" y2="183.878" gradientUnits="userSpaceOnUse">
<stop offset="0.505208" stop-color="#A65CD9"/>
<stop offset="0.505308" stop-color="#0811DA"/>
</linearGradient>
</defs>
</svg>
