<svg width="343" height="343" viewBox="0 0 343 343" fill="none" xmlns="http://www.w3.org/2000/svg">
<ellipse cx="171.5" cy="176.5" rx="169.5" ry="166.5" fill="#DAA442"/>
<mask id="mask0_97_39850" style="mask-type:alpha" maskUnits="userSpaceOnUse" x="0" y="0" width="343" height="343">
<circle cx="171.5" cy="171.5" r="171.5" fill="#F3BDE1"/>
</mask>
<g mask="url(#mask0_97_39850)">
<rect x="31" y="274" width="281" height="94" fill="#4F4F4F"/>
<path d="M71 104C71 92.9543 79.9543 84 91 84H251C262.046 84 271 92.9543 271 104V255.4C271 261.929 267.813 268.047 262.463 271.789L184.695 326.181C177.952 330.897 169.008 331.002 162.156 326.445L79.9242 271.754C74.3497 268.046 71 261.795 71 255.1V104Z" fill="#656565"/>
<path d="M99 147C99 141.477 103.477 137 109 137H234C239.523 137 244 141.477 244 147V175.256C244 181.741 237.921 186.511 231.621 184.968L172.912 170.591C171.328 170.203 169.673 170.208 168.092 170.606L111.441 184.868C105.126 186.458 99 181.683 99 175.17V147Z" fill="#D9D9D9"/>
<rect x="95" y="222" width="8" height="44" rx="4" fill="#D9D9D9"/>
<rect x="113" y="222" width="8" height="52" rx="4" fill="#D9D9D9"/>
<rect x="131" y="222" width="8" height="62" rx="4" fill="#D9D9D9"/>
<rect x="149" y="222" width="8" height="76" rx="4" fill="#D9D9D9"/>
<rect x="167" y="222" width="8" height="88" rx="4" fill="#D9D9D9"/>
<rect x="185" y="222" width="8" height="76" rx="4" fill="#D9D9D9"/>
<rect x="203" y="222" width="8" height="62" rx="4" fill="#D9D9D9"/>
<rect x="221" y="222" width="8" height="52" rx="4" fill="#D9D9D9"/>
<rect x="239" y="222" width="8" height="44" rx="4" fill="#D9D9D9"/>
</g>
</svg>
