<svg width="116" height="115" viewBox="0 0 116 115" fill="none" xmlns="http://www.w3.org/2000/svg">
<path d="M58 0C55.4362 0 52.9775 1.00967 51.1646 2.80689C49.3518 4.60412 48.3333 7.04167 48.3333 9.58333V47.9167H9.66667C7.10291 47.9167 4.64415 48.9263 2.8313 50.7236C1.01845 52.5208 0 54.9583 0 57.5C0 60.0417 1.01845 62.4792 2.8313 64.2764C4.64415 66.0737 7.10291 67.0833 9.66667 67.0833H48.3333V105.417C48.3333 107.958 49.3518 110.396 51.1646 112.193C52.9775 113.99 55.4362 115 58 115C60.5638 115 63.0225 113.99 64.8354 112.193C66.6482 110.396 67.6667 107.958 67.6667 105.417V67.0833H106.333C108.897 67.0833 111.356 66.0737 113.169 64.2764C114.982 62.4792 116 60.0417 116 57.5C116 54.9583 114.982 52.5208 113.169 50.7236C111.356 48.9263 108.897 47.9167 106.333 47.9167H67.6667V9.58333C67.6667 7.04167 66.6482 4.60412 64.8354 2.80689C63.0225 1.00967 60.5638 0 58 0Z" fill="white"/>
</svg>
