<svg width="78" height="79" viewBox="0 0 78 79" fill="none" xmlns="http://www.w3.org/2000/svg">
<path d="M68.575 52.0904C67.7073 51.3042 66.667 50.7328 65.5379 50.4223C64.4089 50.1118 63.2227 50.0709 62.075 50.3029L45.9875 53.0654C45.9932 52.0877 45.7936 51.1197 45.4018 50.224C45.0099 49.3283 44.4344 48.5247 43.7125 47.8654L32.175 36.3279H8.125C7.26305 36.3279 6.4364 36.6703 5.82691 37.2798C5.21741 37.8893 4.875 38.7159 4.875 39.5779C4.875 40.4398 5.21741 41.2665 5.82691 41.876C6.4364 42.4855 7.26305 42.8279 8.125 42.8279H29.575L39.1625 52.4154C39.3911 52.6568 39.5185 52.9767 39.5185 53.3091C39.5185 53.6416 39.3911 53.9614 39.1625 54.2029C39.0405 54.3412 38.8905 54.452 38.7224 54.5279C38.5543 54.6038 38.3719 54.643 38.1875 54.643C38.0031 54.643 37.8207 54.6038 37.6526 54.5279C37.4845 54.452 37.3345 54.3412 37.2125 54.2029L31.525 48.6779C30.8991 48.2085 30.125 47.9806 29.3446 48.0361C28.5643 48.0915 27.8301 48.4266 27.2769 48.9798C26.7237 49.533 26.3886 50.2671 26.3332 51.0475C26.2777 51.8278 26.5056 52.602 26.975 53.2279L32.6625 58.9154C34.139 60.3622 36.1203 61.178 38.1875 61.1904C39.1909 61.1311 40.1784 60.9116 41.1125 60.5404L63.2125 56.6404C63.6677 56.6251 64.118 56.7377 64.5125 56.9654C64.829 57.3242 65.0025 57.7869 65 58.2654C65.0022 58.6267 64.8707 58.976 64.6306 59.2461C64.3906 59.5161 64.0591 59.6877 63.7 59.7279L33.475 65.2529L15.7625 50.9529H8.125C7.26305 50.9529 6.4364 51.2953 5.82691 51.9048C5.21741 52.5143 4.875 53.3409 4.875 54.2029C4.87442 54.6224 4.95933 55.0376 5.12456 55.4232C5.28978 55.8088 5.53185 56.1567 5.83599 56.4456C6.14012 56.7345 6.49995 56.9584 6.8935 57.1037C7.28706 57.2489 7.70608 57.3125 8.125 57.2904H13.4875L31.525 72.0779L64.8375 66.0654C66.7034 65.7904 68.4064 64.8488 69.6314 63.4147C70.8563 61.9806 71.5201 60.1513 71.5 58.2654C71.5384 57.0777 71.293 55.898 70.7843 54.8241C70.2757 53.7502 69.5183 52.8131 68.575 52.0904Z" fill="white"/>
<path d="M48.2625 19.7529L51.1875 22.8404C51.3865 23.0656 51.5013 23.3527 51.5125 23.6529L50.7 27.8779C50.5707 28.0503 50.5152 28.267 50.5457 28.4804C50.5761 28.6937 50.6901 28.8862 50.8625 29.0154C51.0349 29.1447 51.2516 29.2003 51.4649 29.1698C51.6782 29.1393 51.8707 29.0253 52 28.8529L55.575 26.9029H56.55L60.125 28.8529C60.2543 29.0253 60.4468 29.1393 60.6601 29.1698C60.8734 29.2003 61.0901 29.1447 61.2625 29.0154C61.4349 28.8862 61.5489 28.6937 61.5793 28.4804C61.6098 28.267 61.5543 28.0503 61.425 27.8779L60.6125 23.6529C60.6237 23.3527 60.7385 23.0656 60.9375 22.8404L63.8625 19.7529C63.9989 19.6506 64.0997 19.508 64.1505 19.3452C64.2014 19.1824 64.1997 19.0078 64.1458 18.846C64.0919 18.6842 63.9884 18.5435 63.8501 18.4438C63.7117 18.3441 63.5455 18.2904 63.375 18.2904L59.3125 17.6404L58.6625 17.1529L56.875 13.2529C56.7861 13.1189 56.6653 13.0089 56.5236 12.9328C56.3818 12.8567 56.2234 12.8169 56.0625 12.8169C55.9016 12.8169 55.7432 12.8567 55.6014 12.9328C55.4597 13.0089 55.3389 13.1189 55.25 13.2529L53.4625 17.1529L52.8125 17.6404L48.75 18.2904C48.5795 18.2904 48.4133 18.3441 48.2749 18.4438C48.1366 18.5435 48.0331 18.6842 47.9792 18.846C47.9253 19.0078 47.9236 19.1824 47.9745 19.3452C48.0253 19.508 48.1261 19.6506 48.2625 19.7529Z" fill="white"/>
<path d="M55.0859 10.1654H56.0609C56.74 10.1386 57.3816 9.84697 57.8484 9.35292C58.2258 8.89029 58.4526 8.32323 58.4984 7.72792C58.4555 7.08253 58.2301 6.46261 57.8484 5.94042C57.3364 5.54511 56.7077 5.33069 56.0609 5.33069C55.414 5.33069 54.7854 5.54511 54.2734 5.94042C53.8615 6.50817 53.6345 7.18906 53.6234 7.89042C53.6093 8.192 53.6601 8.49309 53.7722 8.7734C53.8843 9.05371 54.0552 9.30674 54.2734 9.51542L55.0859 10.1654Z" fill="white"/>
<path d="M45.1725 13.4154C45.387 13.6256 45.6411 13.7913 45.92 13.9029C46.1989 14.0145 46.4971 14.0697 46.7975 14.0654C47.1238 14.0824 47.4502 14.0336 47.7572 13.9219C48.0643 13.8103 48.3458 13.638 48.585 13.4154C48.827 13.2019 49.0209 12.9393 49.1537 12.6452C49.2865 12.351 49.3552 12.0319 49.3552 11.7091C49.3552 11.3864 49.2865 11.0673 49.1537 10.7731C49.0209 10.4789 48.827 10.2164 48.585 10.0029L46.31 7.56538C45.8233 7.1832 45.2225 6.97546 44.6037 6.97546C43.985 6.97546 43.3841 7.1832 42.8975 7.56538C42.4403 8.04826 42.1855 8.68793 42.1855 9.35288C42.1855 10.0178 42.4403 10.6575 42.8975 11.1404L45.1725 13.4154Z" fill="white"/>
<path d="M41.276 22.5152L42.0885 23.1652H43.0635C43.7427 23.1384 44.3843 22.8468 44.851 22.3527C45.2285 21.8901 45.4553 21.3231 45.501 20.7277C45.4582 20.0823 45.2327 19.4624 44.851 18.9402L44.3635 18.6152H43.551C43.1475 18.5592 42.7367 18.588 42.3449 18.6999C41.9531 18.8119 41.5891 19.0044 41.276 19.2652L40.951 19.7527V21.0527C40.9011 21.3344 40.9592 21.6245 41.1135 21.8652L41.276 22.5152Z" fill="white"/>
<path d="M45.1749 28.3654L42.8999 30.6404C42.4533 31.096 42.2031 31.7086 42.2031 32.3466C42.2031 32.9847 42.4533 33.5972 42.8999 34.0529C43.1004 34.2927 43.3482 34.4886 43.6278 34.6284C43.9074 34.7682 44.2128 34.8489 44.5249 34.8654C45.204 34.8386 45.8457 34.5469 46.3124 34.0529L48.5874 31.7779C48.8668 31.5683 49.0979 31.3012 49.265 30.9946C49.4322 30.688 49.5315 30.349 49.5563 30.0007C49.581 29.6523 49.5306 29.3027 49.4085 28.9755C49.2864 28.6484 49.0954 28.3513 48.8485 28.1043C48.6015 27.8574 48.3044 27.6664 47.9772 27.5443C47.6501 27.4221 47.3005 27.3718 46.9521 27.3965C46.6038 27.4213 46.2648 27.5206 45.9582 27.6877C45.6516 27.8549 45.3844 28.086 45.1749 28.3654Z" fill="white"/>
<path d="M58.1758 32.5906C58.0133 32.4281 57.8508 32.2656 57.8508 32.1031C57.3387 31.7078 56.7101 31.4934 56.0633 31.4934C55.4164 31.4934 54.7878 31.7078 54.2758 32.1031C54.2758 32.2656 54.1133 32.4281 53.9508 32.5906V32.9156C53.9508 33.0781 53.7883 33.2406 53.7883 33.4031V33.8906C53.7625 34.1934 53.8079 34.498 53.9207 34.7802C54.0336 35.0623 54.2108 35.3142 54.4383 35.5156C54.6664 35.7618 54.943 35.9581 55.2506 36.0924C55.5582 36.2267 55.8902 36.296 56.2258 36.296C56.5614 36.296 56.8934 36.2267 57.201 36.0924C57.5086 35.9581 57.7851 35.7618 58.0133 35.5156C58.4236 35.0731 58.6552 34.4941 58.6633 33.8906V33.4031C58.6633 33.2406 58.5008 33.0781 58.5008 32.9156C58.4241 32.8924 58.3543 32.8505 58.2976 32.7938C58.2409 32.7372 58.199 32.6674 58.1758 32.5906Z" fill="white"/>
<path d="M63.5386 28.3653C63.092 28.821 62.8418 29.4335 62.8418 30.0716C62.8418 30.7096 63.092 31.3222 63.5386 31.7778L65.8136 34.0528C66.2803 34.5469 66.9219 34.8385 67.6011 34.8653C67.9132 34.8488 68.2186 34.7681 68.4982 34.6283C68.7778 34.4885 69.0256 34.2926 69.2261 34.0528C69.4681 33.8393 69.662 33.5768 69.7948 33.2826C69.9276 32.9884 69.9963 32.6693 69.9963 32.3466C69.9963 32.0238 69.9276 31.7047 69.7948 31.4106C69.662 31.1164 69.4681 30.8538 69.2261 30.6403L66.9511 28.3653C66.7376 28.1232 66.475 27.9294 66.1808 27.7966C65.8867 27.6638 65.5676 27.5951 65.2448 27.5951C64.9221 27.5951 64.603 27.6638 64.3088 27.7966C64.0146 27.9294 63.7521 28.1232 63.5386 28.3653Z" fill="white"/>
<path d="M67.2761 19.103L66.951 19.5905V20.8905C66.9011 21.1722 66.9592 21.4623 67.1135 21.703L67.601 22.5155C67.8292 22.7617 68.1058 22.958 68.4133 23.0923C68.7209 23.2266 69.0529 23.2959 69.3886 23.2959C69.7242 23.2959 70.0562 23.2266 70.3637 23.0923C70.6713 22.958 70.9479 22.7617 71.176 22.5155L71.6635 21.703C71.8179 21.4623 71.876 21.1722 71.8261 20.8905V19.9155C71.732 19.8322 71.6738 19.7158 71.6635 19.5905L71.3386 19.103C70.7933 18.5768 70.0651 18.2827 69.3073 18.2827C68.5495 18.2827 67.8213 18.5768 67.2761 19.103Z" fill="white"/>
<path d="M65.3273 14.0654C65.6276 14.0697 65.9259 14.0145 66.2048 13.9029C66.4837 13.7913 66.7377 13.6256 66.9523 13.4154L69.2273 11.1404C69.6844 10.6575 69.9392 10.0178 69.9392 9.35288C69.9392 8.68793 69.6844 8.04826 69.2273 7.56538C68.7406 7.1832 68.1398 6.97546 67.521 6.97546C66.9022 6.97546 66.3014 7.1832 65.8148 7.56538L63.5398 10.0029C63.2977 10.2164 63.1038 10.4789 62.971 10.7731C62.8382 11.0673 62.7695 11.3864 62.7695 11.7091C62.7695 12.0319 62.8382 12.351 62.971 12.6452C63.1038 12.9393 63.2977 13.2019 63.5398 13.4154C63.7789 13.638 64.0604 13.8103 64.3675 13.9219C64.6746 14.0336 65.001 14.0824 65.3273 14.0654Z" fill="white"/>
</svg>
