<svg width="482" height="482" viewBox="0 0 482 482" fill="none" xmlns="http://www.w3.org/2000/svg">
<path d="M386.319 95.0868C394.048 74.1311 401.58 65.7902 405.458 62.6553C408.339 60.3206 410.852 59.4357 412.914 60.01C416.68 61.0738 420.907 67.0235 424.098 75.9103C434.35 104.473 433.512 155.252 423.223 197.832L386.319 95.0868ZM117.077 163.734C124.157 134.551 126.755 101.479 124.392 74.3758L83.3466 69.8006L117.077 163.734ZM389.577 57.3552L106.025 25.7899C103.672 25.5263 101.092 27.1643 99.3317 28.6141C95.8767 31.4383 89.5222 38.3294 82.7065 54.6345L373.3 86.9624C378.157 74.4888 383.674 64.4722 389.595 57.374L389.577 57.3552ZM174.202 338.563V271.986L184.331 273.107L224.096 277.983V344.362L174.202 338.563ZM189.264 300.586C189.296 302.48 189.766 304.34 190.638 306.021C191.51 307.702 192.761 309.158 194.291 310.273L192.088 333.263L208.092 334.901L204.327 311.365C205.863 310.541 207.125 309.288 207.961 307.758C208.797 306.229 209.17 304.489 209.034 302.752C208.864 299.899 207.748 297.185 205.863 295.038C203.977 292.891 201.429 291.435 198.622 290.899C198.622 290.899 198.782 290.993 198.744 290.993C193.143 290.353 188.323 294.665 189.264 300.502V300.586ZM239.159 361.26L159.139 351.997V270.358L158.151 270.273C157.862 271.932 157.036 273.449 155.799 274.59C154.561 275.732 152.983 276.435 151.307 276.59C152.985 277.18 154.4 278.345 155.301 279.879C156.202 281.412 156.531 283.215 156.23 284.968C155.929 286.74 155.005 288.346 153.624 289.496C152.243 290.646 150.496 291.264 148.699 291.238C156.657 295.008 152.786 307.033 144.124 305.453C145.685 306.529 146.782 308.154 147.198 310.004C147.613 311.853 147.316 313.791 146.365 315.431C145.414 317.071 143.88 318.293 142.069 318.851C140.257 319.41 138.302 319.265 136.593 318.445C137.877 319.978 138.5 321.958 138.324 323.951C138.149 325.943 137.189 327.784 135.656 329.069C134.123 330.353 132.142 330.976 130.15 330.8C128.158 330.625 126.317 329.665 125.032 328.132V328.217C125.313 329.744 125.115 331.322 124.464 332.732C123.813 334.143 122.743 335.318 121.398 336.096L129.993 341.133V354.548L118.696 361.26L107.4 354.557V341.133L115.072 336.595C113.877 336.134 112.815 335.384 111.982 334.411C111.149 333.438 110.571 332.274 110.299 331.022C110.295 330.991 110.295 330.959 110.299 330.928C109.607 332.736 108.246 334.209 106.497 335.04C104.749 335.871 102.747 335.996 100.909 335.391C99.0698 334.785 97.5348 333.494 96.6224 331.787C95.7099 330.079 95.4901 328.086 96.0085 326.221C89.5589 333.012 78.9747 324.277 84.4198 316.656C76.5628 320.91 69.153 310.371 75.8154 304.418C67.1827 306.923 62.2092 294.926 70.0822 290.589C68.1471 290.937 66.1526 290.515 64.5247 289.412C62.8968 288.31 61.7646 286.614 61.37 284.688C60.9754 282.762 61.3497 280.758 62.413 279.104C63.4763 277.45 65.1441 276.277 67.0603 275.837C58.3108 274.851 58.0717 262.221 66.7779 260.906C66.148 260.752 65.5879 260.461 65.0551 260.191L48.8252 258.44L49.3901 415.758L340.454 448.227L339.889 292.114L239.159 279.828V361.26ZM371.012 206.869L375.456 208.667L376.312 209.213L412.763 213.271L390.866 152.296L378.798 187.128C378.647 187.561 375.587 196.354 371.012 206.888V206.869ZM174.691 169.458L179.398 174.626L191.401 164.13L211.594 161.983L227.231 176.434L237.125 184.652L254.579 175.906L257.817 176.377C257.93 175.746 258.053 175.116 258.175 174.494C261.075 159.338 265.094 146.102 265.264 145.546L277.869 104.209L293.76 144.416L301.687 164.581L311.722 152.917L332.565 128.695L338.006 160.185L341.104 178.166L357.202 169.091L390.236 150.46L372.838 102.072L139.501 76.0798C141.864 108.973 137.76 148.869 127.837 181.517H130.022L136.611 169.411H174.701L174.691 169.458ZM69.9221 261.141C77.0768 263.118 77.3593 273.159 70.327 275.536C77.6106 276.352 79.5546 286.035 73.1512 289.6C80.3558 289.084 84.0847 298.023 78.649 302.78C85.5335 300.789 91.0454 308.632 86.8392 314.434C92.7588 311.123 99.696 316.71 97.7219 323.199C101.986 318.753 109.495 321.03 110.572 327.096C112.509 321.718 119.497 320.374 123.29 324.649C122.081 318.62 128.214 313.76 133.806 316.317C129.509 310.885 134.206 303.022 141.027 304.23C134.984 299.955 138.087 290.44 145.489 290.551C138.602 287.253 140.429 276.981 148.031 276.26C146.482 275.726 145.15 274.702 144.236 273.343C143.322 271.984 142.876 270.364 142.966 268.729L71.0142 260.953C70.6282 261.132 70.3119 261.094 69.9221 261.141ZM415.927 392.072L415.371 237.813L407.209 244.403L354.952 288.452L355.498 440.959L415.927 392.072ZM391.234 236.552L368.536 222.177L364.601 220.586C359.037 231.431 351.996 242.238 343.269 246.832C338.148 249.543 331.765 250.918 324.29 250.918C313.812 250.918 300.99 248.178 289.129 243.386C279.715 239.621 267.194 233.031 260.642 223.297C256.029 216.434 254.391 206.568 255.643 192.306L235.139 202.595L217.252 187.721L206.501 177.808L197.878 178.75L178.626 195.535L168.271 184.52H145.479L128.901 214.645L123.535 207.867L119.374 212.433L109.245 227.825L97.6748 232.447L91.8908 241H80.4057L77.7923 246.653L150.186 254.382C150.608 253.346 151.25 252.414 152.069 251.652C153.376 250.446 155.067 249.74 156.843 249.661C158.619 249.582 160.367 250.134 161.775 251.219C161.725 251.148 161.681 251.072 161.643 250.993C156.979 243.115 167.724 235.347 173.759 242.167C179.796 248.988 170.778 258.709 163.526 253.121C164.052 253.95 164.41 254.874 164.581 255.841L185.875 258.138L344.54 277.503L393.013 236.665L391.234 236.552ZM364.554 182.204L329.835 201.776L323.113 162.736L296.754 193.341L279.686 149.933C279.686 149.933 264.012 201.315 273.096 214.89C280.336 225.669 306.441 235.836 324.243 235.836C328.95 235.836 333.121 235.121 336.171 233.502C349.162 226.62 364.554 182.204 364.554 182.204ZM66.053 437.137V436.949C66.053 433.4 58.324 430.519 48.797 430.519C39.27 430.519 31.541 433.4 31.541 436.949C31.541 439.971 37.1895 442.503 44.7207 443.191V443.379C44.7207 446.928 52.4496 449.809 61.9767 449.809C71.5037 449.809 79.2327 446.928 79.2327 443.379C79.2232 440.357 73.6031 437.825 66.053 437.137ZM395.545 443.379C386.009 443.379 378.289 446.26 378.289 449.809C378.289 453.358 386.018 456.238 395.545 456.238C405.072 456.238 412.801 453.358 412.801 449.809C412.801 446.26 405.035 443.407 395.498 443.407L395.545 443.379ZM433.201 428.053C423.665 428.053 415.945 430.933 415.945 434.483C415.945 438.032 423.674 440.912 433.201 440.912C442.728 440.912 450.457 438.032 450.457 434.483C450.457 430.933 442.719 428.053 433.192 428.053H433.201Z" fill="#DAA442"/>
</svg>
